<svg width="648" height="648" viewBox="0 0 648 648" fill="none" xmlns="http://www.w3.org/2000/svg">
<path d="M0 141C0 63.1279 63.1279 0 141 0H507C584.872 0 648 63.1279 648 141V507C648 584.872 584.872 648 507 648H141C63.1279 648 0 584.872 0 507V141Z" fill="white"/>
<path d="M339.93 67.66L456.86 184.59L412.88 228.57C411.59 229.86 410.62 231.47 410.09 233.21C408.29 239.1 411.62 245.36 417.52 247.16C417.58 247.18 417.64 247.2 417.7 247.21C422.8 248.53 427.47 251.21 431.2 254.94C436.78 260.53 439.85 267.96 439.84 275.85C439.84 283.74 436.76 291.15 431.18 296.73L431.16 296.75C425.57 302.33 418.14 305.4 410.25 305.39C402.35 305.39 394.93 302.3 389.33 296.69C385.68 293.07 383.06 288.54 381.76 283.57C381.3 281.66 380.34 279.9 378.98 278.48C374.74 274.06 367.7 273.92 363.29 278.15C363.27 278.17 363.25 278.19 363.23 278.21L323.84 317.6L284.49 278.25C284.21 277.95 284.02 277.59 283.93 277.19C283.79 276.58 283.89 275.96 284.22 275.43C284.55 274.9 285.06 274.53 285.67 274.39C285.71 274.39 285.74 274.37 285.78 274.36C292.23 272.68 298.13 269.3 302.84 264.58C302.88 264.54 302.92 264.49 302.96 264.45C307.79 259.62 311.24 253.58 312.96 246.97C315.53 237.06 314.09 226.74 308.9 217.91C303.71 209.08 295.39 202.81 285.48 200.24C275.57 197.67 265.25 199.11 256.42 204.3C247.63 209.47 241.37 217.74 238.78 227.6C238.66 227.96 238.43 228.29 238.19 228.55C237.73 229 237.13 229.25 236.48 229.24C235.83 229.23 235.24 228.98 234.76 228.5L190.81 184.55L307.72 67.66C316.6 58.78 331.05 58.78 339.93 67.66ZM67.66 339.93C58.78 331.05 58.78 316.6 67.66 307.72L184.59 190.79L228.52 234.72C230.61 236.85 233.41 238.03 236.4 238.05C239.38 238.07 242.2 236.93 244.33 234.84C245.65 233.5 246.63 231.92 247.17 230.14C247.19 230.08 247.21 230.02 247.22 229.96C249.2 222.32 254.05 215.9 260.85 211.9C267.66 207.9 275.62 206.78 283.26 208.77C290.9 210.75 297.32 215.59 301.32 222.4C305.32 229.21 306.44 237.17 304.45 244.81C303.13 249.91 300.46 254.57 296.74 258.29L296.72 258.31C296.72 258.31 296.65 258.38 296.61 258.42C293.01 262.02 288.51 264.61 283.58 265.9C280.72 266.59 278.29 268.34 276.74 270.84C275.18 273.36 274.69 276.34 275.37 279.22C275.82 281.16 276.79 282.94 278.17 284.37C278.19 284.39 278.21 284.41 278.23 284.43L317.62 323.82L278.45 362.99C277.98 363.43 277.4 363.7 276.75 363.71C276.11 363.71 275.5 363.47 275.04 363.02C274.77 362.76 274.57 362.43 274.45 362.07C269.09 341.68 248.17 329.41 227.75 334.71C217.84 337.28 209.52 343.56 204.33 352.38C199.14 361.21 197.7 371.53 200.27 381.44C201.99 388.06 205.45 394.11 210.28 398.93C215.01 403.7 220.95 407.13 227.46 408.82C227.5 408.82 227.53 408.84 227.57 408.85C228.18 408.99 228.69 409.36 229.02 409.89C229.35 410.42 229.45 411.04 229.31 411.65C229.22 412.05 229.02 412.41 228.75 412.71L184.6 456.86L67.66 339.93ZM307.72 579.99L190.79 463.06L234.98 418.87C234.98 418.87 235.02 418.83 235.04 418.81C236.42 417.38 237.38 415.6 237.84 413.66C238.52 410.77 238.03 407.8 236.47 405.28C234.92 402.78 232.49 401.03 229.63 400.34C224.66 399.03 220.13 396.42 216.49 392.75C212.76 389.02 210.08 384.35 208.76 379.25C206.78 371.61 207.89 363.65 211.89 356.84C215.89 350.04 222.31 345.19 229.95 343.21C245.73 339.12 261.9 348.62 265.99 364.4C266 364.46 266.02 364.52 266.04 364.58C266.58 366.35 267.56 367.98 268.88 369.28C271.01 371.37 273.82 372.52 276.8 372.49C279.76 372.47 282.53 371.31 284.59 369.24L323.8 330.03L362.97 369.2C363.26 369.48 363.47 369.83 363.58 370.21C363.96 371.46 363.27 372.78 362.04 373.19C355.48 374.91 349.48 378.36 344.68 383.16L344.65 383.19C329.72 398.15 329.74 422.47 344.7 437.4C351.95 444.63 361.58 448.61 371.82 448.6C382.05 448.6 391.66 444.6 398.87 437.39L398.9 437.36C403.71 432.63 407.1 426.69 408.79 420.18C408.79 420.15 408.81 420.11 408.82 420.07C408.92 419.66 409.12 419.29 409.41 418.99C410.33 418.07 411.75 418.03 412.68 418.9L456.83 463.05L339.9 579.98C331.02 588.86 316.57 588.86 307.69 579.98L307.72 579.99ZM579.99 307.72C588.87 316.6 588.87 331.05 579.99 339.93L463.06 456.86L418.87 412.67C418.87 412.67 418.83 412.63 418.81 412.61C414.45 408.43 407.53 408.52 403.28 412.77C403.22 412.83 403.17 412.88 403.12 412.94C401.76 414.36 400.8 416.12 400.34 418.03C399.05 422.96 396.46 427.46 392.84 431.08C392.8 431.12 392.77 431.15 392.73 431.19C381.21 442.71 362.47 442.72 350.94 431.21C339.4 419.69 339.38 400.94 350.9 389.4L350.92 389.38C354.64 385.66 359.3 382.99 364.4 381.67C364.46 381.65 364.52 381.64 364.58 381.62C370.47 379.82 373.8 373.57 372.01 367.68C371.47 365.91 370.49 364.28 369.19 363L330.04 323.85L369.39 284.5C370.32 283.63 371.78 283.67 372.66 284.59C372.95 284.89 373.15 285.26 373.25 285.67C373.25 285.71 373.27 285.74 373.28 285.78C374.98 292.29 378.4 298.23 383.16 302.94C390.39 310.19 400.02 314.18 410.26 314.19C420.5 314.19 430.13 310.22 437.38 302.99L437.41 302.96C444.64 295.73 448.63 286.12 448.64 275.89C448.64 265.65 444.67 256.02 437.44 248.77C432.64 243.96 426.63 240.5 420.05 238.78C418.82 238.37 418.13 237.04 418.51 235.79C418.63 235.41 418.82 235.07 419.14 234.76L463.09 190.81L580.02 307.74L579.99 307.72Z" fill="#148EA8"/>
</svg>
