<?xml version="1.0" encoding="UTF-8"?>
<svg id="Layer_1" xmlns="http://www.w3.org/2000/svg" version="1.1" viewBox="0 0 1948.49 525.65">
  <!-- Generator: Adobe Illustrator 29.7.1, SVG Export Plug-In . SVG Version: 2.1.1 Build 8)  -->
  <defs>
    <style>
      .st0 {
        fill: #fff;
      }
    </style>
  </defs>
  <g>
    <path class="st0" d="M659.93,56.31l-3.14,24.36-13.75-2.89c-2.25-.48-3.98-1.29-5.19-2.41-1.21-1.12-1.81-2.81-1.81-5.06v-13.99h23.88ZM636.06,230.91v-13.99c0-2.25.6-3.94,1.81-5.06,1.21-1.12,2.93-1.93,5.19-2.41l13.75-2.89,3.14,24.36h-23.88ZM653.9,230.91V56.31h57.64c13.99,0,26,2.13,36.05,6.39,10.05,4.26,17.85,10.53,23.39,18.81,5.55,8.28,8.32,18.45,8.32,30.51s-2.77,23.07-8.32,31.59c-5.55,8.52-13.43,14.99-23.63,19.41-10.21,4.42-22.15,6.63-35.81,6.63h-24.12v61.26h-33.52ZM681.64,230.91l2.89-24.36,13.99,2.89c2.09.48,3.78,1.29,5.06,2.41,1.29,1.13,1.93,2.81,1.93,5.06v13.99h-23.88ZM687.43,144.09h24.12c7.56,0,13.9-1.29,19.05-3.86,5.14-2.57,9-6.23,11.58-10.97,2.57-4.74,3.86-10.49,3.86-17.24,0-9.48-2.89-16.88-8.68-22.19-5.79-5.31-14.39-7.96-25.81-7.96h-24.12v62.22Z"/>
    <path class="st0" d="M814.76,56.31l-3.14,24.36-13.75-2.89c-2.25-.48-3.98-1.29-5.19-2.41-1.21-1.12-1.81-2.81-1.81-5.06v-13.99h23.88ZM790.89,230.91v-13.99c0-2.25.6-3.94,1.81-5.06,1.21-1.12,2.93-1.93,5.19-2.41l13.75-2.89,3.14,24.36h-23.88ZM808.73,230.91V56.31h53.78c13.83,0,25.76,1.81,35.81,5.43,10.05,3.62,17.85,9.13,23.39,16.52,5.55,7.4,8.32,16.88,8.32,28.46,0,8.04-1.53,15.31-4.58,21.83-3.06,6.51-7.44,12.1-13.14,16.76-5.71,4.66-12.58,8.36-20.62,11.09,4.34,2.09,8.04,5.47,11.09,10.13l42.93,64.39h-29.91c-5.79,0-9.89-2.17-12.3-6.51l-35.93-55.71c-1.45-2.09-2.98-3.58-4.58-4.46-1.61-.88-4.02-1.33-7.23-1.33h-13.51v68.01h-33.52ZM836.47,230.91l2.89-24.36,13.99,2.89c2.09.48,3.78,1.29,5.06,2.41,1.29,1.13,1.93,2.81,1.93,5.06v13.99h-23.88ZM842.26,139.51h19.78c11.58,0,20.38-2.73,26.41-8.2,6.03-5.46,9.04-12.86,9.04-22.19,0-8.84-2.86-15.59-8.56-20.26-5.71-4.66-14.51-6.99-26.41-6.99h-20.26v57.64ZM923.77,230.91l-12.54-27.49,16.4,3.38-3.86,24.12ZM923.77,230.91l3.14-24.36,13.75,2.89c2.25.48,3.98,1.29,5.19,2.41,1.21,1.13,1.81,2.81,1.81,5.06v13.99h-23.88Z"/>
    <path class="st0" d="M952.47,230.91v-13.99c0-2.25.64-3.94,1.93-5.06,1.29-1.12,2.97-1.93,5.06-2.41l13.99-2.89,2.89,24.36h-23.88ZM959.71,230.91l68.49-174.61h34l68.49,174.61h-25.81c-2.89,0-5.31-.72-7.23-2.17-1.93-1.45-3.22-3.21-3.86-5.31l-41.96-116c-.96-3.05-2.05-6.27-3.26-9.65-1.21-3.38-2.29-7.15-3.26-11.34-1.29,4.18-2.49,7.92-3.62,11.21-1.13,3.3-2.17,6.63-3.14,10.01l-41.96,115.76c-.64,1.93-1.93,3.66-3.86,5.19-1.93,1.53-4.34,2.29-7.23,2.29h-25.81ZM981.17,230.91v-16.16h22.19v16.16h-22.19ZM992.99,230.91l3.13-24.36,13.75,2.89c2.25.48,3.98,1.29,5.19,2.41,1.21,1.13,1.81,2.81,1.81,5.06v13.99h-23.88ZM1002.63,182.92l4.1-23.15h75.49l4.1,23.15h-83.68ZM1073.3,230.91v-13.99c0-2.25.64-3.94,1.93-5.06,1.29-1.12,2.97-1.93,5.06-2.41l13.99-2.89,2.89,24.36h-23.88ZM1084.63,230.91v-16.16h23.63v16.16h-23.63ZM1113.81,230.91l3.14-24.36,13.75,2.89c2.25.48,3.98,1.29,5.19,2.41,1.21,1.13,1.81,2.81,1.81,5.06v13.99h-23.88Z"/>
    <path class="st0" d="M1170.24,56.31l-3.14,24.36-13.75-2.89c-2.25-.48-3.98-1.29-5.19-2.41-1.21-1.12-1.81-2.81-1.81-5.06v-13.99h23.88ZM1146.37,230.91v-13.99c0-2.25.6-3.94,1.81-5.06,1.21-1.12,2.93-1.93,5.19-2.41l13.75-2.89,3.14,24.36h-23.88ZM1164.22,230.91V56.31h25.32c3.05,0,5.31.24,6.75.72,1.45.48,2.89,2.01,4.34,4.58l51.61,96.71c1.45,2.57,2.73,5.23,3.86,7.96,1.12,2.74,2.25,5.55,3.38,8.44,1.12-2.41,2.33-5.14,3.62-8.2,1.29-3.05,2.57-5.95,3.86-8.68l50.89-96.23c1.45-2.57,2.93-4.1,4.46-4.58,1.53-.48,3.82-.72,6.87-.72h25.08v174.61h-29.18v-112.14c0-2.25.04-4.54.12-6.87.08-2.33.2-4.7.36-7.11l-52.09,97.91c-2.41,4.82-6.27,7.24-11.58,7.24h-4.58c-5.31,0-9.25-2.41-11.82-7.24l-52.82-98.15c.32,2.57.56,5.06.72,7.48.16,2.41.24,4.66.24,6.75v112.14h-29.42ZM1188.81,230.91l3.14-24.36,13.99,2.89c2.09.48,3.78,1.29,5.06,2.41,1.28,1.13,1.93,2.81,1.93,5.06v13.99h-24.12ZM1305.78,230.91v-13.99c0-2.25.6-3.94,1.81-5.06,1.21-1.12,2.93-1.93,5.19-2.41l13.75-2.89,3.13,24.36h-23.88ZM1372.34,56.31v13.99c0,2.25-.64,3.94-1.93,5.06-1.29,1.13-2.98,1.93-5.06,2.41l-13.99,2.89-2.89-24.36h23.88ZM1348.47,230.91l2.89-24.36,13.99,2.89c2.09.48,3.78,1.29,5.06,2.41,1.29,1.13,1.93,2.81,1.93,5.06v13.99h-23.88Z"/>
    <path class="st0" d="M1380.78,230.91v-13.99c0-2.25.64-3.94,1.93-5.06,1.29-1.12,2.97-1.93,5.06-2.41l13.99-2.89,2.89,24.36h-23.88ZM1388.02,230.91l68.49-174.61h34l68.49,174.61h-25.81c-2.89,0-5.31-.72-7.23-2.17s-3.22-3.21-3.86-5.31l-41.96-116c-.96-3.05-2.05-6.27-3.26-9.65-1.21-3.38-2.29-7.15-3.26-11.34-1.29,4.18-2.49,7.92-3.62,11.21-1.13,3.3-2.17,6.63-3.14,10.01l-41.96,115.76c-.64,1.93-1.93,3.66-3.86,5.19-1.93,1.53-4.34,2.29-7.23,2.29h-25.81ZM1409.48,230.91v-16.16h22.19v16.16h-22.19ZM1421.3,230.91l3.13-24.36,13.75,2.89c2.25.48,3.98,1.29,5.19,2.41,1.21,1.13,1.81,2.81,1.81,5.06v13.99h-23.88ZM1430.95,182.92l4.1-23.15h75.49l4.1,23.15h-83.68ZM1501.61,230.91v-13.99c0-2.25.64-3.94,1.93-5.06,1.29-1.12,2.97-1.93,5.06-2.41l13.99-2.89,2.89,24.36h-23.88ZM1512.94,230.91v-16.16h23.63v16.16h-23.63ZM1542.12,230.91l3.14-24.36,13.75,2.89c2.25.48,3.98,1.29,5.19,2.41,1.21,1.13,1.81,2.81,1.81,5.06v13.99h-23.88Z"/>
    <path class="st0" d="M1570.82,230.91v-13.99c0-2.25.64-3.94,1.93-5.06,1.29-1.12,2.97-1.93,5.06-2.41l13.99-2.89,2.89,24.36h-23.88ZM1578.06,230.91l68.49-174.61h34l68.49,174.61h-25.81c-2.89,0-5.31-.72-7.23-2.17-1.93-1.45-3.22-3.21-3.86-5.31l-41.96-116c-.97-3.05-2.05-6.27-3.26-9.65-1.21-3.38-2.29-7.15-3.26-11.34-1.29,4.18-2.49,7.92-3.62,11.21-1.13,3.3-2.17,6.63-3.14,10.01l-41.96,115.76c-.64,1.93-1.93,3.66-3.86,5.19-1.93,1.53-4.34,2.29-7.23,2.29h-25.81ZM1599.52,230.91v-16.16h22.19v16.16h-22.19ZM1611.34,230.91l3.13-24.36,13.75,2.89c2.25.48,3.98,1.29,5.19,2.41,1.21,1.13,1.81,2.81,1.81,5.06v13.99h-23.88ZM1620.99,182.92l4.1-23.15h75.49l4.1,23.15h-83.68ZM1691.65,230.91v-13.99c0-2.25.64-3.94,1.93-5.06,1.29-1.12,2.97-1.93,5.07-2.41l13.99-2.89,2.89,24.36h-23.88ZM1702.98,230.91v-16.16h23.63v16.16h-23.63ZM1732.17,230.91l3.14-24.36,13.75,2.89c2.25.48,3.98,1.29,5.18,2.41,1.21,1.13,1.81,2.81,1.81,5.06v13.99h-23.88Z"/>
    <path class="st0" d="M1788.6,56.31l-3.14,24.36-13.75-2.89c-2.25-.48-3.98-1.29-5.19-2.41-1.21-1.12-1.81-2.81-1.81-5.06v-13.99h23.88ZM1764.72,230.91v-13.99c0-2.25.6-3.94,1.81-5.06,1.21-1.12,2.93-1.93,5.19-2.41l13.75-2.89,3.14,24.36h-23.88ZM1782.57,230.91V56.31h17.61c2.73,0,4.86.32,6.39.97,1.53.64,3.09,2.09,4.7,4.34l90.68,116.24c-.32-2.73-.57-5.46-.72-8.2-.16-2.73-.24-5.22-.24-7.48V56.31h29.42v174.61h-17.12c-2.57,0-4.74-.4-6.51-1.21-1.77-.8-3.54-2.33-5.31-4.58l-90.2-115.52c.32,2.74.52,5.06.6,6.99.08,1.93.12,4.42.12,7.48v106.84h-29.42ZM1807.17,230.91l3.14-24.36,13.99,2.89c2.09.48,3.78,1.29,5.06,2.41,1.28,1.13,1.93,2.81,1.93,5.06v13.99h-24.12ZM1905.81,56.31l-3.14,24.36-13.75-2.89c-2.25-.48-3.98-1.29-5.19-2.41-1.21-1.12-1.81-2.81-1.81-5.06v-13.99h23.88ZM1948.49,56.31v13.99c0,2.25-.6,3.94-1.81,5.06-1.21,1.13-2.94,1.93-5.19,2.41l-13.75,2.89-3.13-24.36h23.88Z"/>
    <path class="st0" d="M720.23,469.34c-13.35,0-25.28-2.25-35.81-6.75-10.53-4.5-19.41-10.69-26.65-18.57-7.4-8.04-13.06-17.52-17-28.46-3.94-10.93-5.91-22.51-5.91-34.73,0-13.34,2.21-25.52,6.63-36.54,4.42-11.01,10.57-20.46,18.45-28.34,8.04-7.88,17.6-14.03,28.7-18.45,11.09-4.42,23.07-6.63,35.93-6.63,7.23,0,14.15.64,20.74,1.93,6.59,1.29,12.78,2.98,18.57,5.06,5.79,2.09,11.17,4.26,16.16,6.51v21.46l-16.4.96c-4.67-2.57-10.45-4.54-17.36-5.91-6.91-1.36-13.59-2.05-20.02-2.05-11.9,0-22.15,2.57-30.75,7.72-8.6,5.15-15.16,12.3-19.66,21.46-4.5,9.16-6.75,19.94-6.75,32.32,0,11.74,2.09,22.23,6.27,31.47,4.18,9.25,10.37,16.52,18.57,21.83,8.2,5.31,18.17,7.96,29.9,7.96,6.59,0,12.82-1,18.69-3.01,5.87-2.01,11.46-5.43,16.76-10.25.8-.64,1.69-1.16,2.65-1.57.96-.4,1.93-.6,2.89-.6,1.77,0,3.29.64,4.58,1.93l13.26,13.99c-6.75,8.52-15.36,15.19-25.8,20.02-10.45,4.82-22.67,7.23-36.66,7.23ZM756.64,320.3l23.39,5.55v21.22h-12.54c-2.09,0-3.7-.6-4.82-1.81-1.13-1.21-1.93-2.93-2.41-5.19l-3.62-19.78Z"/>
    <path class="st0" d="M793.3,467.41v-13.99c0-2.25.64-3.94,1.93-5.06,1.29-1.12,2.97-1.93,5.06-2.41l13.99-2.89,2.89,24.36h-23.88ZM800.53,467.41l68.49-174.61h34l68.49,174.61h-25.81c-2.89,0-5.31-.72-7.23-2.17-1.93-1.45-3.22-3.21-3.86-5.31l-41.96-116c-.96-3.05-2.05-6.27-3.26-9.65s-2.29-7.15-3.26-11.34c-1.29,4.18-2.49,7.92-3.62,11.21-1.13,3.3-2.17,6.63-3.14,10.01l-41.96,115.76c-.64,1.93-1.93,3.66-3.86,5.19-1.93,1.53-4.34,2.29-7.23,2.29h-25.81ZM822,467.41v-16.16h22.19v16.16h-22.19ZM833.82,467.41l3.13-24.36,13.75,2.89c2.25.48,3.98,1.29,5.19,2.41,1.21,1.13,1.81,2.81,1.81,5.06v13.99h-23.88ZM843.46,419.42l4.1-23.15h75.49l4.1,23.15h-83.68ZM914.12,467.41v-13.99c0-2.25.64-3.94,1.93-5.06,1.29-1.12,2.97-1.93,5.06-2.41l13.99-2.89,2.89,24.36h-23.88ZM925.46,467.41v-16.16h23.63v16.16h-23.63ZM954.64,467.41l3.14-24.36,13.75,2.89c2.25.48,3.98,1.29,5.19,2.41,1.21,1.13,1.81,2.81,1.81,5.06v13.99h-23.88Z"/>
    <path class="st0" d="M1011.07,292.81l-3.14,24.36-13.75-2.89c-2.25-.48-3.98-1.29-5.19-2.41-1.21-1.12-1.81-2.81-1.81-5.06v-13.99h23.88ZM987.2,467.41v-13.99c0-2.25.6-3.94,1.81-5.06,1.21-1.12,2.93-1.93,5.19-2.41l13.75-2.89,3.14,24.36h-23.88ZM1005.04,467.41v-174.61h53.78c13.83,0,25.76,1.81,35.81,5.43,10.05,3.62,17.85,9.13,23.39,16.52,5.55,7.4,8.32,16.88,8.32,28.46,0,8.04-1.53,15.31-4.58,21.83-3.06,6.51-7.44,12.1-13.14,16.76-5.71,4.66-12.58,8.36-20.62,11.09,4.34,2.09,8.04,5.47,11.09,10.13l42.93,64.39h-29.91c-5.79,0-9.89-2.17-12.3-6.51l-35.93-55.71c-1.45-2.09-2.98-3.58-4.58-4.46-1.61-.88-4.02-1.33-7.23-1.33h-13.51v68.01h-33.52ZM1032.78,467.41l2.89-24.36,13.99,2.89c2.09.48,3.78,1.29,5.06,2.41,1.29,1.13,1.93,2.81,1.93,5.06v13.99h-23.88ZM1038.57,376.01h19.78c11.58,0,20.38-2.73,26.41-8.2,6.03-5.46,9.04-12.86,9.04-22.19,0-8.84-2.86-15.59-8.56-20.26-5.71-4.66-14.51-6.99-26.41-6.99h-20.26v57.64ZM1120.08,467.41l-12.54-27.49,16.4,3.38-3.86,24.12ZM1120.08,467.41l3.14-24.36,13.75,2.89c2.25.48,3.98,1.29,5.19,2.41,1.21,1.13,1.81,2.81,1.81,5.06v13.99h-23.88Z"/>
    <path class="st0" d="M1176.52,292.81l-2.89,24.36-13.99-2.89c-2.09-.48-3.78-1.29-5.06-2.41-1.29-1.12-1.93-2.81-1.93-5.06v-13.99h23.88ZM1152.64,467.41v-13.99c0-2.25.6-3.94,1.81-5.06,1.21-1.12,2.93-1.93,5.19-2.41l13.75-2.89,3.14,24.36h-23.88ZM1170.49,467.41v-174.61h110.45v26.05h-76.93v48.23h58.36v25.08h-58.36v49.2h76.93v26.05h-110.45ZM1257.31,313.3l23.63,5.55v21.22h-12.54c-2.09,0-3.7-.6-4.82-1.81-1.13-1.21-2.01-2.93-2.65-5.19l-3.62-19.78ZM1257.31,446.91l3.62-19.78c.64-2.25,1.53-3.98,2.65-5.19,1.12-1.21,2.73-1.81,4.82-1.81h12.54v21.22l-23.63,5.55Z"/>
  </g>
  <path class="st0" d="M278.93,6.66l116.93,116.93-43.93,43.93-.05.05c-1.29,1.29-2.26,2.9-2.79,4.64-1.8,5.89,1.53,12.15,7.43,13.95.06.02.12.04.18.05,5.1,1.32,9.77,4,13.5,7.73,5.58,5.59,8.65,13.02,8.64,20.91,0,7.89-3.08,15.3-8.66,20.88l-.02.02c-5.59,5.58-13.02,8.65-20.91,8.64-7.9,0-15.32-3.09-20.92-8.7-3.65-3.62-6.27-8.15-7.57-13.12-.46-1.91-1.42-3.67-2.78-5.09-4.24-4.42-11.28-4.56-15.69-.33-.02.02-.04.04-.06.06l-39.39,39.39-39.35-39.35c-.28-.3-.47-.66-.56-1.06-.14-.61-.04-1.23.29-1.76.33-.53.84-.9,1.45-1.04.04,0,.07-.02.11-.03,6.45-1.68,12.35-5.06,17.06-9.78.04-.04.08-.09.12-.13,4.83-4.83,8.28-10.87,10-17.48,2.57-9.91,1.13-20.23-4.06-29.06-5.19-8.83-13.51-15.1-23.42-17.67-9.91-2.57-20.23-1.13-29.06,4.06-8.79,5.17-15.05,13.44-17.64,23.3-.12.36-.35.69-.59.95-.46.45-1.06.7-1.71.69s-1.24-.26-1.72-.74l-43.95-43.95L246.72,6.66c8.88-8.88,23.33-8.88,32.21,0ZM6.66,278.93c-8.88-8.88-8.88-23.33,0-32.21l116.93-116.93,43.93,43.93c2.09,2.13,4.89,3.31,7.88,3.33,2.98.02,5.8-1.12,7.93-3.21,1.32-1.34,2.3-2.92,2.84-4.7.02-.06.04-.12.05-.18,1.98-7.64,6.83-14.06,13.63-18.06,6.81-4,14.77-5.12,22.41-3.13,7.64,1.98,14.06,6.82,18.06,13.63,4,6.81,5.12,14.77,3.13,22.41-1.32,5.1-3.99,9.76-7.71,13.48l-.02.02s-.07.07-.11.11c-3.6,3.6-8.1,6.19-13.03,7.48-2.86.69-5.29,2.44-6.84,4.94-1.56,2.52-2.05,5.5-1.37,8.38.45,1.94,1.42,3.72,2.8,5.15.02.02.04.04.06.06l39.39,39.39-39.17,39.17c-.47.44-1.05.71-1.7.72-.64,0-1.25-.24-1.71-.69-.27-.26-.47-.59-.59-.95-5.36-20.39-26.28-32.66-46.7-27.36-9.91,2.57-18.23,8.85-23.42,17.67-5.19,8.83-6.63,19.15-4.06,29.06,1.72,6.62,5.18,12.67,10.01,17.49,4.73,4.77,10.67,8.2,17.18,9.89.04,0,.07.02.11.03.61.14,1.12.51,1.45,1.04.33.53.43,1.15.29,1.76-.09.4-.29.76-.56,1.06l-44.15,44.15L6.66,278.93ZM246.72,518.99l-116.93-116.93,44.19-44.19s.04-.04.06-.06c1.38-1.43,2.34-3.21,2.8-5.15.68-2.89.19-5.86-1.37-8.38-1.55-2.5-3.98-4.25-6.84-4.94-4.97-1.31-9.5-3.92-13.14-7.59-3.73-3.73-6.41-8.4-7.73-13.5-1.98-7.64-.87-15.6,3.13-22.41,4-6.8,10.42-11.65,18.06-13.63,15.78-4.09,31.95,5.41,36.04,21.19.01.06.03.12.05.18.54,1.77,1.52,3.4,2.84,4.7,2.13,2.09,4.94,3.24,7.92,3.21,2.96-.02,5.73-1.18,7.79-3.25l.06-.06,39.15-39.15,39.17,39.17c.29.28.5.63.61,1.01.38,1.25-.31,2.57-1.54,2.98-6.56,1.72-12.56,5.17-17.36,9.97l-.03.03c-14.93,14.96-14.91,39.28.05,54.21,7.25,7.23,16.88,11.21,27.12,11.2,10.23,0,19.84-4,27.05-11.21l.03-.03c4.81-4.73,8.2-10.67,9.89-17.18,0-.03.02-.07.03-.11.1-.41.3-.78.59-1.08.92-.92,2.34-.96,3.27-.09l44.15,44.15-116.93,116.93c-8.88,8.88-23.33,8.88-32.21,0ZM518.99,246.72c8.88,8.88,8.88,23.33,0,32.21l-116.93,116.93-44.19-44.19s-.04-.04-.06-.06c-4.36-4.18-11.28-4.09-15.53.16-.06.06-.11.11-.16.17-1.36,1.42-2.32,3.18-2.78,5.09-1.29,4.93-3.88,9.43-7.5,13.05-.04.04-.07.07-.11.11-11.52,11.52-30.26,11.53-41.79.02-11.54-11.52-11.56-30.27-.04-41.81l.02-.02c3.72-3.72,8.38-6.39,13.48-7.71.06-.02.12-.03.18-.05,5.89-1.8,9.22-8.05,7.43-13.94-.54-1.77-1.52-3.4-2.82-4.68l-39.15-39.15,39.35-39.35c.93-.87,2.39-.83,3.27.09.29.3.49.67.59,1.08,0,.04.02.07.03.11,1.7,6.51,5.12,12.45,9.88,17.16,7.23,7.25,16.86,11.24,27.1,11.25,10.24,0,19.87-3.97,27.12-11.2l.03-.03c7.23-7.23,11.22-16.84,11.23-27.07,0-10.24-3.97-19.87-11.2-27.12-4.8-4.81-10.81-8.27-17.39-9.99-1.23-.41-1.92-1.74-1.54-2.99.12-.38.31-.72.63-1.03l43.95-43.95,116.93,116.93Z"/>
  <line class="st0" x1="580.25" y1="6.07" x2="580.25" y2="519.58"/>
</svg>